<svg width="579" height="579" viewBox="0 0 579 579" fill="none" xmlns="http://www.w3.org/2000/svg">
<rect y="-1.41421" width="114" height="114" rx="19" transform="matrix(0.707107 -0.707107 -0.707107 -0.707107 288 172.635)" fill="white" stroke="black" stroke-width="2"/>
<rect y="-1.41421" width="114" height="114" rx="19" transform="matrix(0.707107 -0.707107 -0.707107 -0.707107 118.024 360.635)" fill="white" stroke="black" stroke-width="2"/>
<rect y="-1.41421" width="114" height="114" rx="19" transform="matrix(0.707107 -0.707107 -0.707107 -0.707107 457.024 360.635)" fill="white" stroke="black" stroke-width="2"/>
<path d="M288.707 191.293C288.317 190.902 287.683 190.902 287.293 191.293L280.929 197.657C280.538 198.047 280.538 198.681 280.929 199.071C281.319 199.462 281.953 199.462 282.343 199.071L288 193.414L293.657 199.071C294.047 199.462 294.681 199.462 295.071 199.071C295.462 198.681 295.462 198.047 295.071 197.657L288.707 191.293ZM287 192L287 194.016L289 194.016L289 192L287 192ZM287 198.049L287 202.082L289 202.082L289 198.049L287 198.049ZM287 206.114L287 210.147L289 210.147L289 206.114L287 206.114ZM287 214.179L287 218.212L289 218.212L289 214.179L287 214.179ZM287 222.245L287 226.277L289 226.277L289 222.245L287 222.245ZM287 230.31L287 234.342L289 234.342L289 230.31L287 230.31ZM287 238.375L287 242.408L289 242.408L289 238.375L287 238.375ZM287 246.44L287 250.473L289 250.473L289 246.44L287 246.44ZM287 254.505L287 258.538L289 258.538L289 254.505L287 254.505ZM287 262.571L287 266.603L289 266.603L289 262.571L287 262.571ZM287 270.636L287 274.668L289 274.668L289 270.636L287 270.636ZM287 278.701L287 282.734L289 282.734L289 278.701L287 278.701ZM287 286.766L287 290.799L289 290.799L289 286.766L287 286.766ZM287 294.832L287 298.864L289 298.864L289 294.832L287 294.832ZM287 302.897L287 306.929L289 306.929L289 302.897L287 302.897ZM287 310.962L287 314.995L289 314.995L289 310.962L287 310.962ZM287 319.027L287 323.06L289 323.06L289 319.027L287 319.027ZM287 327.092L287 331.125L289 331.125L289 327.092L287 327.092ZM287 335.158L287 339.19L289 339.19L289 335.158L287 335.158ZM287 343.223L287 347.255L289 347.255L289 343.223L287 343.223ZM287 351.288L287 355.321L289 355.321L289 351.288L287 351.288ZM287 359.353L287 363.386L289 363.386L289 359.353L287 359.353ZM287 367.418L287 371.451L289 371.451L289 367.418L287 367.418ZM287 375.484L287 379.516L289 379.516L289 375.484L287 375.484ZM287 383.549L287 387.581L289 387.581L289 383.549L287 383.549ZM287 391.614L287 395.647L289 395.647L289 391.614L287 391.614ZM287 399.679L287 403.712L289 403.712L289 399.679L287 399.679ZM287 407.745L287 411.777L289 411.777L289 407.745L287 407.745ZM287 415.81L287 419.842L289 419.842L289 415.81L287 415.81ZM287 423.875L287 427.908L289 427.908L289 423.875L287 423.875ZM287 431.94L287 435.973L289 435.973L289 431.94L287 431.94ZM287 440.005L287 444.038L289 444.038L289 440.005L287 440.005ZM287 448.071L287 452.103L289 452.103L289 448.071L287 448.071ZM287 456.136L287 460.168L289 460.168L289 456.136L287 456.136ZM287 464.201L287 468.234L289 468.234L289 464.201L287 464.201ZM287 472.266L287 476.299L289 476.299L289 472.266L287 472.266ZM287 480.332L287 484.364L289 484.364L289 480.332L287 480.332ZM287 488.397L287 492.429L289 492.429L289 488.397L287 488.397ZM287 496.462L287 500.495L289 500.495L289 496.462L287 496.462ZM287 504.527L287 508.56L289 508.56L289 504.527L287 504.527ZM287 512.593L287 516.625L289 516.625L289 512.593L287 512.593ZM287 520.658L287 524.69L289 524.69L289 520.658L287 520.658ZM287 528.723L287 532.756L289 532.756L289 528.723L287 528.723ZM287 536.788L287 540.821L289 540.821L289 536.788L287 536.788ZM287 544.854L287 548.886L289 548.886L289 544.854L287 544.854ZM287 552.919L287 556.951L289 556.951L289 552.919L287 552.919ZM287 560.984L287 563L289 563L289 560.984L287 560.984Z" fill="black"/>
<path d="M385.996 348.093C386.047 347.543 385.643 347.056 385.093 347.004L376.132 346.167C375.582 346.115 375.095 346.519 375.043 347.069C374.992 347.619 375.396 348.107 375.946 348.158L383.911 348.903L383.167 356.868C383.115 357.418 383.519 357.905 384.069 357.957C384.619 358.008 385.107 357.604 385.158 357.054L385.996 348.093ZM360.856 368.016L361.494 368.786L360.856 368.016ZM289.5 563L289.5 560.949L287.5 560.949L287.5 563L289.5 563ZM289.5 556.848L289.5 552.747L287.5 552.747L287.5 556.848L289.5 556.848ZM289.5 548.645L289.5 544.544L287.5 544.544L287.5 548.645L289.5 548.645ZM289.5 540.443L289.5 536.341L287.5 536.341L287.5 540.443L289.5 540.443ZM289.5 532.24L289.5 528.139L287.5 528.139L287.5 532.24L289.5 532.24ZM289.5 524.037L289.5 521.987L287.5 521.987L287.5 524.037L289.5 524.037ZM289.5 521.987C289.5 521.323 289.503 520.66 289.51 519.998L287.51 519.978C287.503 520.647 287.5 521.317 287.5 521.987L289.5 521.987ZM289.589 516.026C289.629 514.701 289.682 513.377 289.748 512.055L287.75 511.955C287.683 513.29 287.63 514.627 287.59 515.966L289.589 516.026ZM289.985 508.088C290.078 506.766 290.183 505.445 290.302 504.127L288.31 503.948C288.19 505.279 288.084 506.613 287.99 507.948L289.985 508.088ZM290.698 500.175C290.843 498.857 291.001 497.541 291.173 496.228L289.189 495.97C289.016 497.295 288.857 498.624 288.71 499.955L290.698 500.175ZM291.726 492.293C291.924 490.983 292.135 489.675 292.358 488.371L290.387 488.033C290.161 489.351 289.948 490.671 289.749 491.995L291.726 492.293ZM293.068 484.461C293.318 483.16 293.581 481.861 293.857 480.566L291.901 480.15C291.622 481.458 291.357 482.769 291.104 484.084L293.068 484.461ZM294.723 476.688C295.024 475.398 295.339 474.112 295.666 472.829L293.728 472.335C293.397 473.63 293.08 474.93 292.775 476.233L294.723 476.688ZM296.686 468.988C297.039 467.711 297.404 466.438 297.783 465.169L295.866 464.597C295.484 465.879 295.115 467.165 294.758 468.455L296.686 468.988ZM298.955 461.372C299.359 460.11 299.775 458.853 300.203 457.6L298.311 456.953C297.878 458.218 297.458 459.488 297.05 460.763L298.955 461.372ZM301.527 453.853C301.98 452.608 302.446 451.368 302.925 450.133L301.06 449.411C300.577 450.658 300.106 451.911 299.648 453.168L301.527 453.853ZM304.396 446.442C304.899 445.217 305.414 443.996 305.942 442.781L304.107 441.985C303.574 443.212 303.054 444.445 302.546 445.683L304.396 446.442ZM307.56 439.152C308.111 437.948 308.674 436.749 309.25 435.556L307.448 434.687C306.867 435.892 306.298 437.103 305.741 438.319L307.56 439.152ZM311.011 431.994C311.61 430.812 312.221 429.637 312.843 428.468L311.078 427.528C310.449 428.709 309.832 429.896 309.227 431.089L311.011 431.994ZM314.745 424.979C315.391 423.823 316.048 422.673 316.717 421.529L314.99 420.519C314.315 421.675 313.651 422.836 312.999 424.004L314.745 424.979ZM318.757 418.119C319.448 416.989 320.15 415.866 320.864 414.75L319.18 413.673C318.458 414.8 317.749 415.934 317.051 417.075L318.757 418.119ZM323.039 411.425C323.774 410.324 324.521 409.23 325.279 408.143L323.639 406.999C322.873 408.096 322.119 409.201 321.376 410.313L323.039 411.425ZM327.585 404.906C328.364 403.835 329.153 402.772 329.954 401.717L328.361 400.508C327.552 401.574 326.754 402.648 325.968 403.729L327.585 404.906ZM332.387 398.575C333.208 397.536 334.04 396.505 334.883 395.482L333.339 394.211C332.488 395.244 331.647 396.286 330.818 397.335L332.387 398.575ZM337.439 392.44C338.301 391.436 339.173 390.439 340.055 389.45L338.564 388.118C337.672 389.117 336.791 390.123 335.921 391.138L337.439 392.44ZM342.732 386.513C343.633 385.543 344.545 384.582 345.466 383.629L344.029 382.238C343.098 383.201 342.177 384.172 341.267 385.151L342.732 386.513ZM348.257 380.801C349.196 379.869 350.145 378.945 351.104 378.03L349.723 376.583C348.754 377.507 347.796 378.44 346.848 379.382L348.257 380.801ZM354.006 375.315C354.982 374.42 355.967 373.535 356.962 372.658L355.64 371.157C354.635 372.043 353.64 372.937 352.655 373.841L354.006 375.315ZM359.969 370.063C360.475 369.635 360.983 369.209 361.494 368.786L360.218 367.246C359.702 367.674 359.188 368.104 358.678 368.536L359.969 370.063ZM361.494 368.786L363.003 367.535L361.727 365.995L360.218 367.246L361.494 368.786ZM366.021 365.033L369.039 362.531L367.763 360.991L364.745 363.493L366.021 365.033ZM372.057 360.029L375.075 357.527L373.799 355.987L370.781 358.489L372.057 360.029ZM378.093 355.025L381.111 352.523L379.835 350.983L376.817 353.485L378.093 355.025ZM384.129 350.021L385.638 348.77L384.362 347.23L382.853 348.481L384.129 350.021Z" fill="black"/>
<path d="M190.004 348.093C189.953 347.543 190.357 347.056 190.907 347.004L199.868 346.167C200.418 346.115 200.905 346.519 200.957 347.069C201.008 347.619 200.604 348.107 200.054 348.158L192.089 348.903L192.833 356.868C192.885 357.418 192.481 357.905 191.931 357.957C191.381 358.008 190.893 357.604 190.842 357.054L190.004 348.093ZM215.144 368.016L214.506 368.786L215.144 368.016ZM286.5 563L286.5 560.949L288.5 560.949L288.5 563L286.5 563ZM286.5 556.848L286.5 552.747L288.5 552.747L288.5 556.848L286.5 556.848ZM286.5 548.645L286.5 544.544L288.5 544.544L288.5 548.645L286.5 548.645ZM286.5 540.443L286.5 536.341L288.5 536.341L288.5 540.443L286.5 540.443ZM286.5 532.24L286.5 528.139L288.5 528.139L288.5 532.24L286.5 532.24ZM286.5 524.037L286.5 521.987L288.5 521.987L288.5 524.037L286.5 524.037ZM286.5 521.987C286.5 521.323 286.497 520.66 286.49 519.998L288.49 519.978C288.497 520.647 288.5 521.317 288.5 521.987L286.5 521.987ZM286.411 516.026C286.371 514.701 286.318 513.377 286.252 512.055L288.25 511.955C288.317 513.29 288.37 514.627 288.41 515.966L286.411 516.026ZM286.015 508.088C285.922 506.766 285.817 505.445 285.698 504.127L287.69 503.948C287.81 505.279 287.916 506.613 288.01 507.948L286.015 508.088ZM285.302 500.175C285.157 498.857 284.999 497.541 284.827 496.228L286.811 495.97C286.984 497.295 287.143 498.624 287.29 499.955L285.302 500.175ZM284.274 492.293C284.076 490.983 283.865 489.675 283.642 488.371L285.613 488.033C285.839 489.351 286.052 490.671 286.251 491.995L284.274 492.293ZM282.932 484.461C282.682 483.16 282.419 481.861 282.143 480.566L284.099 480.15C284.378 481.458 284.643 482.769 284.896 484.084L282.932 484.461ZM281.277 476.688C280.976 475.398 280.661 474.112 280.334 472.829L282.272 472.335C282.603 473.63 282.92 474.93 283.225 476.233L281.277 476.688ZM279.314 468.988C278.961 467.711 278.596 466.438 278.217 465.169L280.134 464.597C280.516 465.879 280.885 467.165 281.242 468.455L279.314 468.988ZM277.045 461.372C276.641 460.11 276.225 458.853 275.797 457.6L277.689 456.953C278.122 458.218 278.542 459.488 278.95 460.763L277.045 461.372ZM274.473 453.853C274.02 452.608 273.554 451.368 273.075 450.133L274.94 449.411C275.423 450.658 275.894 451.911 276.352 453.168L274.473 453.853ZM271.604 446.442C271.101 445.217 270.586 443.996 270.058 442.781L271.893 441.985C272.426 443.212 272.946 444.445 273.454 445.683L271.604 446.442ZM268.44 439.152C267.889 437.948 267.326 436.749 266.75 435.556L268.552 434.687C269.133 435.892 269.702 437.103 270.259 438.319L268.44 439.152ZM264.989 431.994C264.39 430.812 263.779 429.637 263.157 428.468L264.922 427.528C265.551 428.709 266.168 429.896 266.773 431.089L264.989 431.994ZM261.255 424.979C260.609 423.823 259.952 422.673 259.283 421.529L261.01 420.519C261.685 421.675 262.349 422.836 263.001 424.004L261.255 424.979ZM257.243 418.119C256.552 416.989 255.85 415.866 255.136 414.75L256.82 413.673C257.542 414.8 258.251 415.934 258.949 417.075L257.243 418.119ZM252.961 411.425C252.226 410.324 251.479 409.23 250.721 408.143L252.361 406.999C253.127 408.096 253.881 409.201 254.624 410.313L252.961 411.425ZM248.415 404.906C247.636 403.835 246.847 402.772 246.046 401.717L247.639 400.508C248.448 401.574 249.246 402.648 250.032 403.729L248.415 404.906ZM243.613 398.575C242.792 397.536 241.96 396.505 241.117 395.482L242.661 394.211C243.512 395.244 244.353 396.286 245.182 397.335L243.613 398.575ZM238.561 392.44C237.699 391.436 236.827 390.439 235.945 389.45L237.436 388.118C238.328 389.117 239.209 390.123 240.079 391.138L238.561 392.44ZM233.268 386.513C232.367 385.543 231.455 384.582 230.534 383.629L231.971 382.238C232.902 383.201 233.823 384.172 234.733 385.151L233.268 386.513ZM227.743 380.801C226.804 379.869 225.855 378.945 224.896 378.03L226.277 376.583C227.246 377.507 228.204 378.44 229.152 379.382L227.743 380.801ZM221.994 375.315C221.018 374.42 220.033 373.535 219.038 372.658L220.36 371.157C221.365 372.043 222.36 372.937 223.345 373.841L221.994 375.315ZM216.031 370.063C215.525 369.635 215.017 369.209 214.506 368.786L215.782 367.246C216.298 367.674 216.812 368.104 217.322 368.536L216.031 370.063ZM214.506 368.786L212.997 367.535L214.273 365.995L215.782 367.246L214.506 368.786ZM209.979 365.033L206.961 362.531L208.237 360.991L211.255 363.493L209.979 365.033ZM203.943 360.029L200.925 357.527L202.201 355.987L205.219 358.489L203.943 360.029ZM197.907 355.025L194.889 352.523L196.165 350.983L199.183 353.485L197.907 355.025ZM191.871 350.021L190.362 348.77L191.638 347.23L193.147 348.481L191.871 350.021Z" fill="black"/>
</svg>
