<svg width="579" height="579" viewBox="0 0 579 579" fill="none" xmlns="http://www.w3.org/2000/svg">
<rect x="289" y="245.414" width="114" height="114" rx="19" transform="rotate(45 289 245.414)" fill="white" stroke="black" stroke-width="2"/>
<rect x="119.024" y="57.4142" width="114" height="114" rx="19" transform="rotate(45 119.024 57.4142)" fill="white" stroke="black" stroke-width="2"/>
<rect x="458.024" y="57.4142" width="114" height="114" rx="19" transform="rotate(45 458.024 57.4142)" fill="white" stroke="black" stroke-width="2"/>
<path d="M288.707 31.2929C288.317 30.9023 287.683 30.9023 287.293 31.2929L280.929 37.6569C280.538 38.0474 280.538 38.6805 280.929 39.071C281.319 39.4616 281.953 39.4616 282.343 39.071L288 33.4142L293.657 39.071C294.047 39.4616 294.681 39.4616 295.071 39.071C295.462 38.6805 295.462 38.0474 295.071 37.6569L288.707 31.2929ZM307.365 472.713L306.642 472.022L307.365 472.713ZM307.503 162.316L306.782 163.008L307.503 162.316ZM288 113.838L289 113.838L288 113.838ZM409.594 268.661L410.316 267.968L409.594 268.661ZM409.732 365.471L409.009 364.781L409.732 365.471ZM289 578L289 575.966L287 575.966L287 578L289 578ZM289 571.898L289 567.83L287 567.83L287 571.898L289 571.898ZM289 563.762L289 559.693L287 559.693L287 563.762L289 563.762ZM289 555.625L289 551.557L287 551.557L287 555.625L289 555.625ZM289 547.489L289 543.421L287 543.421L287 547.489L289 547.489ZM289 539.353L289 535.285L287 535.285L287 539.353L289 539.353ZM289 531.216L289 527.148L287 527.148L287 531.216L289 531.216ZM289 523.08L289 521.046L287 521.046L287 523.08L289 523.08ZM289 521.046C289 520.419 289.009 519.793 289.026 519.168L287.026 519.114C287.009 519.757 287 520.401 287 521.046L289 521.046ZM289.23 515.417C289.332 514.167 289.468 512.922 289.638 511.684L287.656 511.413C287.482 512.687 287.342 513.968 287.236 515.254L289.23 515.417ZM290.248 507.978C290.486 506.748 290.757 505.525 291.06 504.311L289.12 503.826C288.808 505.075 288.529 506.333 288.285 507.6L290.248 507.978ZM292.07 500.694C292.439 499.497 292.841 498.311 293.275 497.136L291.399 496.443C290.953 497.652 290.539 498.872 290.159 500.104L292.07 500.694ZM294.672 493.65C295.169 492.501 295.697 491.366 296.256 490.245L294.467 489.352C293.891 490.505 293.348 491.674 292.836 492.856L294.672 493.65ZM298.024 486.931C298.642 485.844 299.291 484.772 299.969 483.718L298.287 482.636C297.589 483.721 296.921 484.823 296.285 485.942L298.024 486.931ZM302.086 480.616C302.818 479.603 303.579 478.608 304.368 477.633L302.814 476.375C302.002 477.378 301.218 478.402 300.465 479.444L302.086 480.616ZM306.81 474.779C307.229 474.316 307.656 473.857 308.088 473.403L306.642 472.022C306.196 472.489 305.758 472.961 305.326 473.438L306.81 474.779ZM308.088 473.403L309.435 471.992L307.989 470.611L306.642 472.022L308.088 473.403ZM312.129 469.17L314.823 466.348L313.376 464.967L310.683 467.789L312.129 469.17ZM317.517 463.526L320.211 460.704L318.764 459.323L316.07 462.145L317.517 463.526ZM322.905 457.881L325.599 455.059L324.152 453.678L321.458 456.5L322.905 457.881ZM328.292 452.237L330.986 449.415L329.54 448.034L326.846 450.856L328.292 452.237ZM333.68 446.593L336.374 443.771L334.927 442.39L332.233 445.212L333.68 446.593ZM339.068 440.949L341.762 438.126L340.315 436.745L337.621 439.568L339.068 440.949ZM344.456 435.304L347.15 432.482L345.703 431.101L343.009 433.923L344.456 435.304ZM349.843 429.66L352.537 426.838L351.091 425.457L348.397 428.279L349.843 429.66ZM355.231 424.016L357.925 421.194L356.478 419.813L353.784 422.635L355.231 424.016ZM360.619 418.371L363.313 415.549L361.866 414.168L359.172 416.99L360.619 418.371ZM366.007 412.727L368.7 409.905L367.254 408.524L364.56 411.346L366.007 412.727ZM371.394 407.083L374.088 404.261L372.641 402.88L369.948 405.702L371.394 407.083ZM376.782 401.438L379.476 398.616L378.029 397.235L375.335 400.058L376.782 401.438ZM382.17 395.794L384.864 392.972L383.417 391.591L380.723 394.413L382.17 395.794ZM387.558 390.15L390.251 387.328L388.805 385.947L386.111 388.769L387.558 390.15ZM392.945 384.506L395.639 381.683L394.192 380.303L391.499 383.125L392.945 384.506ZM398.333 378.861L401.027 376.039L399.58 374.658L396.886 377.48L398.333 378.861ZM403.721 373.217L406.415 370.395L404.968 369.014L402.274 371.836L403.721 373.217ZM409.108 367.573L410.455 366.162L409.009 364.781L407.662 366.192L409.108 367.573ZM410.455 366.162C410.938 365.656 411.411 365.146 411.876 364.63L410.39 363.291C409.938 363.793 409.478 364.289 409.009 364.781L410.455 366.162ZM414.574 361.453C415.447 360.362 416.283 359.252 417.082 358.124L415.45 356.968C414.674 358.064 413.861 359.143 413.013 360.203L414.574 361.453ZM419.392 354.651C420.131 353.466 420.831 352.264 421.493 351.047L419.737 350.091C419.093 351.274 418.413 352.442 417.695 353.593L419.392 354.651ZM423.377 347.327C423.97 346.065 424.523 344.79 425.037 343.502L423.18 342.76C422.68 344.011 422.143 345.251 421.567 346.477L423.377 347.327ZM426.469 339.586C426.909 338.264 427.308 336.931 427.668 335.591L425.736 335.073C425.387 336.375 424.998 337.67 424.571 338.955L426.469 339.586ZM428.63 331.533C428.911 330.17 429.151 328.801 429.352 327.427L427.373 327.138C427.178 328.474 426.944 329.805 426.671 331.129L428.63 331.533ZM429.832 323.285C429.952 321.899 430.031 320.511 430.07 319.122L428.07 319.066C428.033 320.416 427.956 321.766 427.839 323.113L429.832 323.285ZM430.064 314.952C430.021 313.563 429.938 312.175 429.814 310.79L427.822 310.968C427.942 312.314 428.023 313.663 428.065 315.013L430.064 314.952ZM429.322 306.649C429.118 305.276 428.873 303.907 428.588 302.545L426.631 302.954C426.908 304.278 427.145 305.608 427.344 306.943L429.322 306.649ZM427.615 298.49C427.252 297.15 426.848 295.819 426.405 294.498L424.509 295.135C424.94 296.418 425.332 297.712 425.685 299.014L427.615 298.49ZM424.962 290.586C424.444 289.3 423.887 288.026 423.291 286.766L421.483 287.622C422.062 288.846 422.604 290.084 423.107 291.333L424.962 290.586ZM421.397 283.051C420.731 281.836 420.027 280.636 419.285 279.454L417.591 280.516C418.312 281.666 418.996 282.831 419.643 284.012L421.397 283.051ZM416.965 275.987C416.163 274.861 415.324 273.753 414.448 272.665L412.89 273.919C413.741 274.977 414.557 276.053 415.337 277.147L416.965 275.987ZM411.741 269.496C411.274 268.982 410.799 268.472 410.316 267.968L408.873 269.353C409.343 269.843 409.805 270.339 410.258 270.839L411.741 269.496ZM410.316 267.968L408.898 266.491L407.455 267.876L408.873 269.353L410.316 267.968ZM406.062 263.537L403.226 260.583L401.783 261.968L404.619 264.922L406.062 263.537ZM400.39 257.629L397.554 254.675L396.111 256.06L398.947 259.014L400.39 257.629ZM394.718 251.721L391.882 248.767L390.44 250.152L393.276 253.106L394.718 251.721ZM389.047 245.813L386.211 242.859L384.768 244.244L387.604 247.198L389.047 245.813ZM383.375 239.905L380.539 236.951L379.096 238.336L381.932 241.29L383.375 239.905ZM377.703 233.997L374.867 231.043L373.424 232.428L376.26 235.382L377.703 233.997ZM372.031 228.089L369.196 225.135L367.753 226.52L370.589 229.474L372.031 228.089ZM366.36 222.181L363.524 219.227L362.081 220.612L364.917 223.566L366.36 222.181ZM360.688 216.273L357.852 213.319L356.409 214.704L359.245 217.658L360.688 216.273ZM355.016 210.364L352.18 207.41L350.738 208.796L353.573 211.75L355.016 210.364ZM349.344 204.456L346.509 201.502L345.066 202.887L347.902 205.842L349.344 204.456ZM343.673 198.548L340.837 195.594L339.394 196.979L342.23 199.933L343.673 198.548ZM338.001 192.64L335.165 189.686L333.722 191.071L336.558 194.025L338.001 192.64ZM332.329 186.732L329.493 183.778L328.051 185.163L330.886 188.117L332.329 186.732ZM326.657 180.824L323.822 177.87L322.379 179.255L325.215 182.209L326.657 180.824ZM320.986 174.916L318.15 171.962L316.707 173.347L319.543 176.301L320.986 174.916ZM315.314 169.008L312.478 166.054L311.035 167.439L313.871 170.393L315.314 169.008ZM309.642 163.1L308.224 161.623L306.782 163.008L308.199 164.485L309.642 163.1ZM308.224 161.623C307.788 161.169 307.359 160.71 306.937 160.245L305.457 161.59C305.892 162.068 306.333 162.541 306.782 163.008L308.224 161.623ZM304.479 157.387C303.684 156.41 302.918 155.414 302.18 154.399L300.562 155.575C301.321 156.619 302.11 157.644 302.928 158.649L304.479 157.387ZM300.048 151.29C299.366 150.234 298.712 149.159 298.09 148.069L296.353 149.061C296.994 150.183 297.666 151.288 298.369 152.376L300.048 151.29ZM296.31 144.746C295.746 143.622 295.214 142.483 294.714 141.331L292.879 142.128C293.394 143.313 293.942 144.485 294.521 145.642L296.31 144.746ZM293.307 137.833C292.87 136.655 292.465 135.465 292.093 134.264L290.182 134.857C290.565 136.092 290.982 137.317 291.431 138.529L293.307 137.833ZM291.075 130.634C290.77 129.417 290.497 128.189 290.258 126.954L288.294 127.334C288.54 128.605 288.821 129.868 289.135 131.121L291.075 130.634ZM289.643 123.235C289.472 121.992 289.335 120.743 289.232 119.488L287.238 119.652C287.344 120.943 287.485 122.229 287.661 123.507L289.643 123.235ZM289.026 115.723C289.009 115.096 289 114.468 289 113.838L287 113.838C287 114.486 287.009 115.132 287.026 115.778L289.026 115.723ZM289 113.838L289 111.792L287 111.792L287 113.838L289 113.838ZM289 107.7L289 103.608L287 103.608L287 107.7L289 107.7ZM289 99.5166L289 95.4247L287 95.4247L287 99.5166L289 99.5166ZM289 91.3328L289 87.2408L287 87.2408L287 91.3328L289 91.3328ZM289 83.1489L289 79.057L287 79.057L287 83.1489L289 83.1489ZM289 74.9651L289 70.8732L287 70.8732L287 74.9651L289 74.9651ZM289 66.7812L289 62.6893L287 62.6893L287 66.7813L289 66.7812ZM289 58.5974L289 54.5055L287 54.5055L287 58.5974L289 58.5974ZM289 50.4136L289 46.3217L287 46.3217L287 50.4136L289 50.4136ZM289 42.2298L289 38.1379L287 38.1379L287 42.2298L289 42.2298ZM289 34.046L289 32L287 32L287 34.046L289 34.046Z" fill="black"/>
</svg>
