<svg width="579" height="579" viewBox="0 0 579 579" fill="none" xmlns="http://www.w3.org/2000/svg">
<rect x="386" y="223" width="114" height="114" rx="19" fill="white" stroke="black" stroke-width="2"/>
<rect x="386" y="384" width="114" height="114" rx="19" fill="white" stroke="black" stroke-width="2"/>
<rect x="228" y="384" width="114" height="114" rx="19" fill="white" stroke="black" stroke-width="2"/>
<rect x="78" y="384" width="114" height="114" rx="19" fill="white" stroke="black" stroke-width="2"/>
<rect x="78" y="223" width="114" height="114" rx="19" fill="white" stroke="black" stroke-width="2"/>
<rect x="289.024" y="121.414" width="114" height="114" rx="19" transform="rotate(45 289.024 121.414)" fill="white" stroke="black" stroke-width="2"/>
<line x1="288" y1="90" x2="288" y2="46" stroke="black" stroke-width="2" stroke-dasharray="4 4"/>
<line x1="381.164" y1="142.634" x2="419.269" y2="120.634" stroke="black" stroke-width="2" stroke-dasharray="4 4"/>
<line x1="343.366" y1="289.165" x2="365.366" y2="327.27" stroke="black" stroke-width="2" stroke-dasharray="4 4"/>
<line x1="236.366" y1="290.165" x2="214.366" y2="328.27" stroke="black" stroke-width="2" stroke-dasharray="4 4"/>
<line x1="290" y1="304" x2="290" y2="348" stroke="black" stroke-width="2" stroke-dasharray="4 4"/>
<line x1="195.836" y1="144.366" x2="157.731" y2="122.366" stroke="black" stroke-width="2" stroke-dasharray="4 4"/>
<line x1="234.634" y1="104.835" x2="212.634" y2="66.7298" stroke="black" stroke-width="2" stroke-dasharray="4 4"/>
<line x1="341.634" y1="103.835" x2="363.634" y2="65.7298" stroke="black" stroke-width="2" stroke-dasharray="4 4"/>
</svg>
